<?xml version="1.0" encoding="UTF-8"?>
<svg width="110" height="110" viewBox="0 0 110 110" fill="none" xmlns="http://www.w3.org/2000/svg">
  <!-- Background Circle -->
  <circle cx="55" cy="55" r="55" fill="#F59E0B"/>
  
  <!-- Honeycomb Pattern -->
  <path d="M55 25C38.4315 25 25 38.4315 25 55C25 71.5685 38.4315 85 55 85C71.5685 85 85 71.5685 85 55C85 38.4315 71.5685 25 55 25ZM55 75C43.9543 75 35 66.0457 35 55C35 43.9543 43.9543 35 55 35C66.0457 35 75 43.9543 75 55C75 66.0457 66.0457 75 55 75Z" fill="white"/>
  
  <!-- Bee Wings -->
  <path d="M65 45C65 40.5817 68.5817 37 73 37C77.4183 37 81 40.5817 81 45C81 49.4183 77.4183 53 73 53C68.5817 53 65 49.4183 65 45Z" fill="white"/>
  <path d="M45 45C45 40.5817 41.4183 37 37 37C32.5817 37 29 40.5817 29 45C29 49.4183 32.5817 53 37 53C41.4183 53 45 49.4183 45 45Z" fill="white"/>
  
  <!-- Bee Body -->
  <path d="M55 45C58.866 45 62 48.134 62 52C62 55.866 58.866 59 55 59C51.134 59 48 55.866 48 52C48 48.134 51.134 45 55 45Z" fill="white"/>
</svg> 